# xmcd
#
# Track frame offsets:
#	150
#	17272
#	35237
#	54066
#	82324
#	100162
#	114134
#	130150
#	154750
#	172117
#	187868
#
# Disc length: 2749 seconds
#
# Revision: 0
# Processed by: cddbd v1.5.2PL0 Copyright (c) Steve Scherf et al.
# Submitted via: EZCDAudioConverter 3.0.8.1
#
DISCID=800abb0b
DTITLE=EASY BABIES - EL BLUES PAGA MAL
DYEAR=2011
DGENRE=BLUES
TTITLE0=(ESTAMOS) HACIENDO LAS COSAS BIEN
TTITLE1=EL HILO SE CORTO
TTITLE2=EL TRUCO DEL OLVIDO
TTITLE3=ESTOY POR EL PISO
TTITLE4=ABUSANDO DE MI SUERTE
TTITLE5=PIERDO EL RUMBO
TTITLE6=EL BLUES PAGA MAL
TTITLE7=RABIOSO Y ATURDIDO
TTITLE8=OFERTA DE PROBLEMAS
TTITLE9=CONSEGUITE OTRA MUJER
TTITLE10=ADELANTE
EXTD=
EXTT0=
EXTT1=
EXTT2=
EXTT3=
EXTT4=
EXTT5=
EXTT6=
EXTT7=
EXTT8=
EXTT9=
EXTT10=
PLAYORDER=
